<svg version="1.1" id="Layer_1" xmlns="http://www.w3.org/2000/svg" xmlns:xlink="http://www.w3.org/1999/xlink" x="0px" y="0px"
	 width="100%" viewBox="0 0 552 309" enable-background="new 0 0 552 309" xml:space="preserve">
<path fill="#86308B" opacity="1.000000" stroke="none" 
	d="
M1.000000,309.000000 
	C1.000000,206.978577 1.000000,104.957138 1.468657,2.467824 
	C180.671555,1.999888 359.405792,2.005182 538.140015,1.958143 
	C541.426758,1.957278 544.713318,1.333261 548.000000,1.000000 
	C548.750000,1.000000 549.500000,1.000000 550.682251,1.317311 
	C551.101868,2.063441 551.089172,2.492259 550.896973,3.301854 
	C550.457031,6.481745 549.972229,9.280647 549.969543,12.080011 
	C549.923157,60.718010 549.924072,109.356064 549.939331,157.994110 
	C549.955078,208.297409 549.997314,258.600708 549.565186,308.930176 
	C546.104736,308.970886 543.106995,308.998169 540.109314,308.998199 
	C360.406219,309.000244 180.703110,309.000000 1.000000,309.000000 
z"/>
<path fill="#969696" opacity="1.000000" stroke="none" 
	d="
M551.076477,2.921077 
	C551.089172,2.492259 551.101868,2.063441 551.057251,1.317311 
	C551.000000,1.000000 551.500000,1.000000 551.768555,1.468339 
	C552.041016,102.249458 552.039185,202.562241 552.088257,302.875000 
	C552.089233,304.916809 552.682922,306.958344 553.000000,309.000000 
	C552.833801,309.333344 552.684998,309.943817 552.498535,309.955536 
	C551.171631,310.038910 549.837097,310.000000 548.504944,310.000000 
	C366.003296,310.000000 183.501648,310.000000 1.000000,309.500000 
	C180.703110,309.000000 360.406219,309.000244 540.109314,308.998199 
	C543.106995,308.998169 546.104736,308.970886 549.924805,308.698486 
	C550.933777,305.970917 551.283020,303.501312 551.283752,301.031586 
	C551.311279,203.987717 551.308716,106.943855 551.297485,9.899990 
	C551.297180,7.573677 551.153320,5.247381 551.076477,2.921077 
z"/>
<path fill="#821987" opacity="1.000000" stroke="none" 
	d="
M547.531372,1.000000 
	C544.713318,1.333261 541.426758,1.957278 538.140015,1.958143 
	C359.405792,2.005182 180.671555,1.999888 1.468657,1.999970 
	C1.166267,1.666667 1.315116,1.056173 1.501596,1.044453 
	C2.828622,0.961052 4.163339,1.000000 5.495607,1.000000 
	C186.017960,1.000000 366.540314,1.000000 547.531372,1.000000 
z"/>
<path fill="#FFFFFF" opacity="1.000000" stroke="none" 
	d="
M553.000000,308.531342 
	C552.682922,306.958344 552.089233,304.916809 552.088257,302.875000 
	C552.039185,202.562241 552.041016,102.249458 552.018555,1.468339 
	C552.333313,2.497403 552.957581,3.994648 552.958374,5.492227 
	C553.005005,92.535309 553.000000,179.578415 553.000000,266.621521 
	C553.000000,280.435242 553.000000,294.248962 553.000000,308.531342 
z"/>
<path fill="#821987" opacity="1.000000" stroke="none" 
	d="
M550.896973,3.301853 
	C551.153320,5.247381 551.297180,7.573677 551.297485,9.899990 
	C551.308716,106.943855 551.311279,203.987717 551.283752,301.031586 
	C551.283020,303.501312 550.933777,305.970917 550.387573,308.672302 
	C549.997314,258.600708 549.955078,208.297409 549.939331,157.994110 
	C549.924072,109.356064 549.923157,60.718010 549.969543,12.080011 
	C549.972229,9.280647 550.457031,6.481745 550.896973,3.301853 
z"/>
</svg>